<?xml version="1.0" encoding="utf-8" ?>
<svg xmlns="http://www.w3.org/2000/svg" width="143" height="18" viewBox="0 0 143 18"><g transform="translate(-211 -56)"><g transform="translate(2 195)"><path d="M-23.838-20.01V-4.133h3.451v-6.788c0-1.726.966-3.06,2.6-3.06,1.243,0,1.841.736,1.841,2.025v7.823h3.451V-12.21A4.036,4.036,0,0,0-16.843-16.6a4.328,4.328,0,0,0-3.543,1.657V-20.01ZM-5.108-3.857C-1.565-3.857.46-5.537.46-8.666v-7.662H-2.991v7.777A1.969,1.969,0,0,1-5.108-6.434,1.952,1.952,0,0,1-7.2-8.551v-7.777h-3.451v7.662C-10.654-5.537-8.629-3.857-5.108-3.857ZM2.416-20.01V-4.133H5.591V-5.882A4.251,4.251,0,0,0,9.5-3.857c2.807,0,5.108-1.795,5.108-6.374S12.31-16.6,9.5-16.6a4.375,4.375,0,0,0-3.635,1.634V-20.01ZM8.467-6.434c-1.5,0-2.669-.92-2.669-3.8s1.173-3.8,2.669-3.8c1.7,0,2.623,1.035,2.623,3.8C11.09-7.447,10.147-6.434,8.467-6.434Z" transform="translate(254.389 -118.205)"/><g transform="translate(209 -139)"><circle cx="5" cy="5" r="5" fill="#f86b45"/><circle cx="5" cy="5" r="5" transform="translate(6)" fill="#ed6a04" opacity="0.316"/></g></g><rect width="70" height="18" rx="3" transform="translate(284 56)" fill="#ffd9e2"/><path d="M-56.421,0h.913l1.782-5.489L-51.955,0h.913l2.662-7.7h-1.331l-1.826,5.6-1.727-5.6H-54.2l-1.727,5.6-1.826-5.6h-1.331Zm12.738-2.827a2.321,2.321,0,0,0-2.453-2.431A2.47,2.47,0,0,0-48.71-2.563,2.465,2.465,0,0,0-46.092.132,2.2,2.2,0,0,0-43.738-1.5h-1.21a1.123,1.123,0,0,1-1.144.583,1.254,1.254,0,0,1-1.43-1.254h3.806C-43.694-2.453-43.683-2.618-43.683-2.827Zm-3.839-.253a1.229,1.229,0,0,1,1.364-1.232,1.153,1.153,0,0,1,1.3,1.232ZM-42.385-5.6a.6.6,0,0,0,.448-.333,1.362,1.362,0,0,0,.153-.655q0-.038,0-.067a.37.37,0,0,0-.013-.067h-.585V-7.89h1.149v1.08a2.255,2.255,0,0,1-.285,1.168,1.1,1.1,0,0,1-.865.551Zm2.3,5.6h1.2V-2.266c0-1.166.517-1.8,1.364-1.8a3.4,3.4,0,0,1,.473.022v-1.1a1.976,1.976,0,0,0-.473-.044,1.382,1.382,0,0,0-1.364,1.056v-.99h-1.2Zm8.5-2.827a2.321,2.321,0,0,0-2.453-2.431,2.47,2.47,0,0,0-2.574,2.695A2.465,2.465,0,0,0-33.99.132,2.2,2.2,0,0,0-31.636-1.5h-1.21a1.123,1.123,0,0,1-1.144.583,1.254,1.254,0,0,1-1.43-1.254h3.806C-31.592-2.453-31.581-2.618-31.581-2.827ZM-35.42-3.08a1.229,1.229,0,0,1,1.364-1.232,1.153,1.153,0,0,1,1.3,1.232ZM-24.8-5.258a1.823,1.823,0,0,0-1.672.847V-7.7h-1.2V0h1.2V-2.816c0-.9.44-1.419,1.221-1.419.836,0,1.122.473,1.122,1.562V0h1.2V-3.223C-22.935-4.565-23.573-5.258-24.8-5.258Zm3.949-.605a.867.867,0,0,0,.891-.891.867.867,0,0,0-.891-.891.867.867,0,0,0-.891.891A.867.867,0,0,0-20.856-5.863ZM-21.45,0h1.188V-5.126H-21.45Zm2.728,0h1.2V-2.266c0-1.166.517-1.8,1.364-1.8a3.4,3.4,0,0,1,.473.022v-1.1a1.976,1.976,0,0,0-.473-.044,1.382,1.382,0,0,0-1.364,1.056v-.99h-1.2Zm4.62-5.863a.867.867,0,0,0,.891-.891.867.867,0,0,0-.891-.891.867.867,0,0,0-.891.891A.867.867,0,0,0-14.1-5.863ZM-14.7,0h1.188V-5.126H-14.7Zm2.728,0h1.2V-2.816c0-.9.44-1.419,1.221-1.419.836,0,1.122.473,1.122,1.562V0h1.2V-3.223c0-1.342-.638-2.035-1.87-2.035a1.823,1.823,0,0,0-1.672.847v-.715h-1.2Zm10-5.126v.693a1.839,1.839,0,0,0-1.606-.825A2.535,2.535,0,0,0-6.127-2.563,2.479,2.479,0,0,0-3.608.132,1.967,1.967,0,0,0-1.969-.693v.561c0,1.155-.517,1.584-1.5,1.584-.825,0-1.254-.341-1.353-.869H-6.072a1.77,1.77,0,0,0,.814,1.4,3.263,3.263,0,0,0,1.8.462,2.9,2.9,0,0,0,1.76-.451A2.585,2.585,0,0,0-.77-.22V-5.126ZM-3.432-.935a1.5,1.5,0,0,1-1.5-1.628,1.5,1.5,0,0,1,1.5-1.628A1.5,1.5,0,0,1-1.914-2.563,1.5,1.5,0,0,1-3.432-.935Z" transform="translate(349 69)" fill="#bd3c65"/></g></svg>